<svg id="b" xmlns="http://www.w3.org/2000/svg" width="35.396" height="22.081" viewBox="0 0 35.396 22.081">
  <g id="c" transform="translate(0 0)">
    <g id="Grupo_9703" data-name="Grupo 9703">
      <path id="União_37" data-name="União 37" d="M11.04,22.08A11.04,11.04,0,0,1,11.04,0H24.356a11.04,11.04,0,0,1,0,22.08ZM.636,11.043A10.4,10.4,0,1,0,11.04.639,10.416,10.416,0,0,0,.636,11.043ZM13.482,4.737a6.759,6.759,0,0,1,0,12.613ZM4.273,11.043v0A6.761,6.761,0,0,1,8.6,4.734V17.35A6.764,6.764,0,0,1,4.273,11.043Z" fill="#2656a0"/>
    </g>
  </g>
</svg>
