<svg id="hipercard" xmlns="http://www.w3.org/2000/svg" width="41.78" height="17.874" viewBox="0 0 41.78 17.874">
  <path id="Caminho_19362" data-name="Caminho 19362" d="M77.182,126.985l-17.452.006v-.041c0-.023.028-.17.062-.327s.087-.407.118-.556.083-.4.116-.56q.123-.586.243-1.173c.031-.154.084-.407.117-.561q.063-.3.124-.592l.12-.581c.03-.148.079-.377.107-.508s.065-.309.081-.394.068-.338.115-.561q.06-.28.116-.56c.017-.086.069-.338.117-.561s.1-.475.116-.56.069-.338.117-.56.1-.47.115-.55.057-.285.093-.457.1-.494.151-.716.128-.61.179-.862l.137-.664q.1-.5.211-1.007l.126-.6c.035-.165.088-.423.118-.571s.083-.4.116-.55.09-.425.127-.6.1-.448.136-.6.092-.341.12-.415a3.743,3.743,0,0,1,.171-.357l.12-.223.109-.141c.06-.077.167-.2.238-.272s.191-.181.267-.241.185-.142.243-.181.172-.108.254-.153.2-.1.254-.13.177-.076.264-.109.254-.088.37-.123.334-.087.485-.116.388-.068.528-.087l.255-.034,17.463-.006,17.463-.007v.041c0,.023-.028.17-.062.327q-.065.3-.127.6c-.036.171-.088.419-.116.55q-.059.28-.118.561l-.126.6c-.032.154-.085.406-.117.561s-.084.406-.117.56q-.057.27-.113.54l-.118.571c-.036.171-.093.442-.127.6s-.086.407-.116.55l-.118.571c-.035.171-.092.442-.127.6s-.085.4-.113.54q-.117.571-.236,1.142l-.113.54q-.065.306-.128.613l-.117.56c-.028.131-.079.379-.115.55q-.062.3-.126.6l-.117.561c-.031.148-.084.405-.119.571l-.126.6-.115.55q-.059.28-.117.56-.062.3-.128.6l-.064.288-.076.2c-.042.11-.1.256-.139.324s-.106.189-.158.269-.124.181-.161.225-.146.161-.245.257l-.178.176-.172.12c-.094.066-.2.133-.226.149s-.144.073-.252.127-.263.122-.342.152-.236.081-.349.113-.233.064-.268.071l-.269.055c-.113.023-.341.059-.507.078l-.3.035-17.453.006Zm-6.209-4.437h.454l.013-.033a.327.327,0,0,0,.013-.094c0-.034.015-.157.033-.273s.061-.385.1-.6.085-.529.114-.706.053-.335.077-.5a.721.721,0,0,1,.038-.182.355.355,0,0,1,.065.1l.053.1.117.116.117.116.144.057.144.057.172.022.172.022.218-.013.218-.013.236-.06.236-.06.127-.057a2.568,2.568,0,0,0,.275-.152l.148-.095.138-.136a3.077,3.077,0,0,0,.238-.265,1.18,1.18,0,0,0,.1-.142.6.6,0,0,1,.06-.1,2.306,2.306,0,0,0,.15-.294c.049-.114.127-.32.172-.457l.082-.249.042-.216c.023-.119.053-.315.067-.436l.024-.22-.014-.187-.014-.187-.044-.187-.044-.187-.071-.14-.071-.14-.138-.144-.138-.144-.163-.083-.163-.083-.18-.042-.18-.042-.18-.013-.179-.013-.2.023-.2.022-.163.041-.163.041-.142.065a2.539,2.539,0,0,0-.252.134,1.265,1.265,0,0,0-.139.1.66.66,0,0,1-.084.064l-.055.036.039-.182c.021-.1.039-.194.04-.208V116.3H71.65l-.068.42c-.037.231-.1.589-.131.794q-.115.68-.232,1.36c-.034.2-.092.517-.127.706l-.115.613c-.028.148-.08.429-.117.623q-.064.342-.129.685-.062.322-.126.643c-.035.171-.068.333-.074.358l-.012.047h.454Zm1.955-2.4-.176.01-.115-.02-.115-.02-.117-.053-.117-.053-.082-.077-.082-.077-.047-.1a1.429,1.429,0,0,1-.074-.216l-.027-.112.011-.179.011-.179.054-.28q.062-.321.119-.643c.036-.2.09-.493.12-.651l.055-.287.121-.1a1.957,1.957,0,0,1,.234-.162l.113-.063.148-.045.148-.045.19-.011.19-.011.155.033.155.032.109.049.109.049.092.09.092.091.049.1a1.373,1.373,0,0,1,.085.229l.035.133-.011.395-.011.394-.054.233c-.03.128-.087.324-.126.436l-.072.2-.088.164a2.876,2.876,0,0,1-.166.271,1.162,1.162,0,0,1-.152.169q-.074.062-.151.119l-.077.057-.179.06-.179.06Zm4.386.571.232,0,.232-.021c.128-.011.337-.035.465-.053s.349-.057.491-.088l.258-.056.013-.094c.007-.051.036-.2.064-.34l.052-.247-.012-.011L79.1,119.8l-.079.037c-.043.021-.179.07-.3.109l-.222.072-.233.044-.232.044h-.739l-.127-.04a1.974,1.974,0,0,1-.228-.089l-.1-.049-.083-.074-.083-.074-.065-.112-.065-.112-.041-.14-.041-.14v-.519l.036-.232.036-.232.318-.015.318-.015,1.175.007,1.175.007.035-.148c.02-.081.049-.249.066-.374l.031-.226v-.38l-.033-.142-.034-.142-.055-.094a1.3,1.3,0,0,0-.119-.166.932.932,0,0,0-.139-.125,2.074,2.074,0,0,0-.181-.108l-.106-.055-.184-.044-.184-.044-.227-.021-.227-.021-.211.013-.211.014-.254.048-.253.048-.159.062a2.94,2.94,0,0,0-.3.139,2.083,2.083,0,0,0-.232.152c-.052.042-.143.123-.2.18a1.868,1.868,0,0,0-.192.229,3,3,0,0,0-.161.27c-.041.08-.095.192-.119.249s-.069.174-.1.259-.077.249-.1.363q-.048.208-.084.418l-.034.21v.618l.032.135a2.479,2.479,0,0,0,.075.249,1.675,1.675,0,0,0,.1.207,1.167,1.167,0,0,0,.141.184,1.8,1.8,0,0,0,.193.168,1.543,1.543,0,0,0,.23.133l.124.055.173.041c.1.022.239.049.319.06S77.186,120.717,77.314,120.719Zm.4-2.924c-.585,0-1.063,0-1.063-.009s.025-.077.055-.161a2.959,2.959,0,0,1,.119-.276l.064-.124.14-.137.14-.137.137-.064a1.583,1.583,0,0,1,.222-.086,2.278,2.278,0,0,1,.3-.035l.211-.013.162.02.162.021.118.053.118.053.065.069a.745.745,0,0,1,.094.123l.03.055.019.122.02.122-.022.2-.022.2H77.712Zm6.319,2.924.233,0,.264-.031c.145-.017.338-.045.429-.062.11-.022.219-.047.327-.076a1.16,1.16,0,0,0,.179-.059.99.99,0,0,0,.056-.209c.021-.107.048-.251.06-.32a.547.547,0,0,0,.013-.133s-.02,0-.035.013a1.87,1.87,0,0,1-.23.1l-.2.074-.29.055-.29.055-.246-.008-.246-.008-.14-.048-.14-.048-.108-.093-.108-.093-.072-.128-.072-.128-.034-.172-.034-.172v-.445l.042-.27.041-.27.044-.145c.024-.08.051-.173.061-.207a2.209,2.209,0,0,1,.086-.218c.038-.086.106-.218.151-.294l.082-.138.1-.1.1-.1.106-.065.106-.065.137-.041a2.574,2.574,0,0,1,.295-.066l.159-.024.232.012.232.012.275.054.275.054.112.041c.061.023.114.041.118.041a1.355,1.355,0,0,0,.033-.171c.015-.094.041-.249.058-.344a.85.85,0,0,0,.022-.182,1.2,1.2,0,0,0-.183-.029c-.1-.011-.356-.03-.579-.042l-.4-.023-.285.022-.285.022-.211.044-.211.044-.136.054a1.994,1.994,0,0,0-.243.118q-.085.051-.167.106a2.9,2.9,0,0,0-.222.2l-.162.157-.09.13a3.335,3.335,0,0,0-.191.331l-.1.2-.077.218c-.042.12-.1.316-.132.436l-.054.218-.02.2-.02.2v.519l.02.151.02.151.063.155.063.155.073.112.073.112.116.112.116.112.123.064.123.064.161.044c.089.024.217.052.285.062a3.566,3.566,0,0,0,.356.02h0Zm3.475-.008.285-.008.18-.045.18-.045.116-.054a2.224,2.224,0,0,0,.232-.13,1.786,1.786,0,0,0,.22-.177,2.42,2.42,0,0,0,.188-.211.557.557,0,0,1,.09-.1,1.657,1.657,0,0,1-.024.213,3.091,3.091,0,0,0-.03.337v.13h.775l.012-.3.012-.3.055-.384c.03-.211.08-.524.109-.7s.081-.461.114-.644.086-.468.117-.633l.057-.3,0-.26,0-.26-.06-.12-.06-.12L90,116.532l-.081-.077-.133-.066-.133-.066-.2-.043-.2-.043-.273-.02-.273-.02-.352.021c-.194.012-.466.035-.606.052l-.253.03H87.15l-.025.119c-.014.066-.052.222-.085.347a1.79,1.79,0,0,0-.053.234,1.4,1.4,0,0,0,.205-.046c.109-.029.341-.076.515-.106l.317-.053.285-.011.285-.012.184.032.184.032.123.059.123.06.069.1.069.1v.317l-.036.174-.036.174-.76,0-.76,0-.249.067a2.887,2.887,0,0,0-.337.109.528.528,0,0,1-.108.042,1.2,1.2,0,0,0-.181.1l-.161.1-.127.125a1.346,1.346,0,0,0-.34.493l-.07.161-.032.181-.032.181v.381l.031.158.031.158.057.1a1.308,1.308,0,0,0,.128.185l.071.081.126.075.126.076.145.04c.08.022.2.049.269.06l.124.019.285-.008h0Zm.264-.581-.169.009-.112-.028a1.2,1.2,0,0,1-.207-.076l-.1-.048-.052-.061a.989.989,0,0,1-.1-.146l-.045-.085-.009-.2-.009-.2.036-.121a1.951,1.951,0,0,1,.1-.257l.067-.136.128-.125.128-.125.136-.064.136-.064.169-.04.169-.039H89.1l.033.014.033.014-.028.163c-.015.09-.052.252-.082.36s-.082.268-.116.354-.062.163-.062.17a1.087,1.087,0,0,1-.077.14l-.077.127-.127.123a.858.858,0,0,1-.144.123.4.4,0,0,0-.095.052l-.078.052-.171.053-.171.053-.169.009Zm6.875.588.2,0,.19-.03c.1-.017.238-.043.3-.06a1.573,1.573,0,0,0,.232-.093l.127-.064.109-.094.109-.094.115-.151a1.755,1.755,0,0,0,.127-.182l.012-.031-.011.1q-.011.1-.029.208c-.01.057-.025.167-.032.244l-.014.14H96.9v-.28l.063-.529c.035-.291.086-.679.114-.861s.071-.444.1-.581.069-.385.1-.55.081-.455.116-.643.091-.487.124-.664l.115-.612c.03-.16.084-.44.12-.623s.076-.381.116-.571c.028-.131.051-.246.051-.254v-.016h-.9l-.013.13c-.007.071-.042.307-.077.524q-.062.384-.127.768-.037.221-.074.443l-.012.069-.036-.015c-.02-.008-.126-.037-.236-.065l-.2-.05-.274-.021-.275-.021-.232.021-.232.021-.211.053-.211.052-.2.1-.2.1-.148.108-.148.108-.128.135a3.061,3.061,0,0,0-.226.272l-.1.137-.115.235c-.063.129-.14.3-.171.38s-.085.257-.121.394l-.065.248-.032.323-.032.322.024.26.024.26.028.093c.016.051.048.143.073.2l.044.11.081.108.081.108.093.075.093.075.127.062a1.765,1.765,0,0,0,.26.1,2.376,2.376,0,0,0,.264.053c.072.009.221.018.332.019Zm.36-.589-.16.008-.107-.019a1.2,1.2,0,0,1-.211-.062l-.1-.043-.087-.07-.086-.07-.064-.121-.064-.121-.03-.135-.029-.135,0-.27,0-.27.034-.239.034-.239.053-.166a1.616,1.616,0,0,0,.053-.192,1,1,0,0,1,.064-.166q.062-.134.13-.265a2.145,2.145,0,0,1,.151-.237,2.039,2.039,0,0,1,.185-.208,1.408,1.408,0,0,1,.195-.152l.095-.057.166-.056.166-.057h.7l.2.055c.11.03.228.065.26.078l.06.023L96.6,117c-.006.031-.032.169-.056.306s-.072.4-.106.581-.087.458-.117.612-.073.35-.1.436-.048.176-.072.264a1.753,1.753,0,0,1-.088.228,1.835,1.835,0,0,1-.124.214,1.191,1.191,0,0,1-.137.158,1.748,1.748,0,0,1-.187.141l-.116.076-.168.052-.168.052Zm-31.086.488h.513l.037-.223c.02-.123.06-.359.088-.524l.116-.685c.036-.211.09-.524.119-.7s.077-.437.105-.59a2.546,2.546,0,0,1,.063-.291l.012-.012h2.76l.015.015.015.015-.024.12c-.013.066-.052.269-.086.452l-.129.685q-.057.306-.117.612c-.028.143-.084.442-.125.664s-.075.416-.074.431v.026h1.031l.023-.13c.013-.071.033-.2.045-.285s.041-.268.065-.4.071-.408.1-.6.091-.526.127-.737.088-.52.117-.685q.055-.312.114-.623c.034-.177.091-.476.126-.664s.088-.473.117-.633l.119-.643c.036-.194.082-.421.1-.5l.036-.151H68.289l-.014.1c-.008.054-.033.206-.056.337s-.065.365-.093.519-.08.448-.114.654-.067.4-.1.6l-.035.231-.766.015-.766.015-.641-.015c-.353-.008-.643-.017-.646-.019a1.7,1.7,0,0,1,.027-.179q.034-.187.072-.373.049-.239.094-.478c.03-.154.063-.346.074-.426s.035-.213.053-.3.051-.257.075-.387.048-.252.055-.27l.013-.033H64.486l-.033.182c-.018.1-.043.242-.054.317s-.05.312-.086.529-.088.539-.117.716l-.116.716q-.061.374-.129.747-.056.306-.115.612l-.116.6q-.057.3-.118.592c-.029.137-.06.3-.07.353s-.043.222-.073.366-.054.277-.054.3v.034h.513Zm5.681,0h.454l.013-.033a.381.381,0,0,0,.013-.105c0-.04.029-.247.063-.46q.12-.729.245-1.457.054-.307.113-.612c.034-.171.085-.437.115-.592s.087-.447.129-.652.08-.38.087-.39l.012-.018-.459.005-.459.006-.038.27c-.021.148-.067.443-.1.654s-.088.534-.118.716q-.054.328-.116.654l-.115.6c-.029.154-.082.425-.118.6s-.082.411-.1.519-.047.218-.054.244l-.013.047Zm10.626,0h.451l.014-.188c.007-.1.033-.311.057-.462s.072-.452.108-.669q.068-.4.147-.8c.045-.224.1-.447.114-.5a.561.561,0,0,0,.031-.116,1.084,1.084,0,0,1,.075-.189,2.565,2.565,0,0,1,.172-.3l.1-.14.129-.117.129-.117.159-.075.159-.075h.486l.119.035c.066.019.125.035.132.035s.012-.022.012-.049.024-.164.053-.3.053-.261.053-.268a.563.563,0,0,0-.153-.059,1.97,1.97,0,0,0-.259-.059l-.106-.013-.137.024a1.773,1.773,0,0,0-.249.064,1.428,1.428,0,0,0-.227.112,1.657,1.657,0,0,0-.217.171,2.46,2.46,0,0,0-.212.245l-.139.187-.03.041.018-.083c.01-.046.038-.2.062-.332s.049-.266.055-.285l.011-.036h-.805v.05c0,.028-.024.193-.053.368s-.077.468-.107.651-.082.5-.116.706-.076.436-.116.654q-.119.623-.244,1.246c-.036.177-.078.386-.095.465s-.03.151-.03.161v.018h.451Zm10.705,0h.461v-.277l.053-.344c.029-.189.078-.489.107-.666s.067-.4.082-.5.057-.307.092-.467.078-.333.1-.384a.65.65,0,0,0,.034-.12,1.388,1.388,0,0,1,.087-.207l.087-.181.115-.15.115-.15.126-.093a1.825,1.825,0,0,1,.247-.151l.121-.058.264,0,.264,0,.1.033.1.033.017-.011.017-.011v-.066a2.63,2.63,0,0,1,.05-.3l.049-.235-.055-.021c-.053-.02-.107-.037-.161-.054l-.105-.033h-.38l-.155.054-.155.053-.116.069-.116.069-.151.156-.151.156-.081.121a.571.571,0,0,1-.087.114s.021-.142.054-.307.061-.322.061-.348V116.3h-.781v.013c0,.007-.02.14-.043.3s-.072.455-.106.667q-.062.379-.126.758-.056.328-.117.654c-.029.154-.081.425-.116.6s-.091.462-.125.633l-.1.5-.039.192h.461Zm-20.438-5.066h.128l.1-.034.1-.034.09-.09.09-.09.047-.12.048-.12,0-.176,0-.176-.042-.069-.042-.069-.074-.045-.074-.045h-.318l-.108.048-.108.048-.063.066-.063.066-.049.114-.049.114-.009.178-.009.178.046.088.046.088.089.04.088.039Z" transform="translate(-59.73 -109.117)" fill="#b3131b"/>
</svg>
