<svg xmlns="http://www.w3.org/2000/svg" width="39.586" height="12.139" viewBox="0 0 39.586 12.139">
  <path id="visa" d="M28.774,11.59a8.33,8.33,0,0,0-2.874-.5c-3.163,0-5.4,1.6-5.412,3.886-.026,1.681,1.585,2.629,2.8,3.2,1.251.58,1.669.941,1.663,1.456-.006.793-1,1.147-1.914,1.147a6.721,6.721,0,0,1-3.022-.619l-.395-.187-.45,2.642a11.047,11.047,0,0,0,3.589.619c3.37,0,5.567-1.585,5.592-4.028.026-1.34-.836-2.357-2.673-3.2-1.108-.541-1.8-.909-1.8-1.463,0-.49.593-1,1.83-1a5.892,5.892,0,0,1,2.4.444l.3.135.444-2.545ZM37,11.313H34.523a1.6,1.6,0,0,0-1.689.974L28.079,23.065h3.364l.678-1.765,4.1.006c.1.412.392,1.758.392,1.758h2.97Zm-21.064-.1h3.2l-2,11.757h-3.2l2-11.763ZM7.79,17.691l.328,1.637,3.137-8.015h3.4L9.6,23.045H6.218L3.446,13.11a.628.628,0,0,0-.3-.392A13.528,13.528,0,0,0,0,11.552l.038-.246H5.206a1.342,1.342,0,0,1,1.456.993L7.79,17.7Zm25.244,1.2L34.316,15.6c-.02.031.263-.677.424-1.122l.219,1.011.742,3.4H33.034Z" transform="translate(0 -11.094)" fill="#005598"/>
</svg>
