<svg id="b" xmlns="http://www.w3.org/2000/svg" width="38.295" height="14.676" viewBox="0 0 38.295 14.676">
  <g id="c">
    <g id="Grupo_9702" data-name="Grupo 9702">
      <g id="Grupo_9700" data-name="Grupo 9700">
        <path id="Caminho_19368" data-name="Caminho 19368" d="M262.528,3.242a4.324,4.324,0,0,1,5.6,3.234l2.96-.6A7.344,7.344,0,0,0,261.57.377l.958,2.865Z" transform="translate(-256.558)" fill="#fbc707"/>
        <path id="Caminho_19369" data-name="Caminho 19369" d="M2.477,107.162l2-2.263a4.316,4.316,0,0,1,0-6.466l-2-2.263a7.338,7.338,0,0,0,0,10.992" transform="translate(0 -94.327)" fill="#38a7e4"/>
        <path id="Caminho_19370" data-name="Caminho 19370" d="M267.989,428.13a4.323,4.323,0,0,1-5.6,3.229l-.959,2.866a7.349,7.349,0,0,0,9.519-5.488l-2.96-.607Z" transform="translate(-256.42 -419.926)" fill="#ef3120"/>
      </g>
      <path id="Caminho_19371" data-name="Caminho 19371" d="M858.438,208.016a5.279,5.279,0,0,1-.308-.593,4.5,4.5,0,0,1,2.246-5.851,4.505,4.505,0,0,1,4.139.3,4.424,4.424,0,0,1,1.848,2.23c.056.132.106.273.154.392Zm2.7-4.7a2.23,2.23,0,0,0-1.352,2.367l4.063-1.749a2.157,2.157,0,0,0-2.711-.618Zm3.218,3.8,0,0-.084-.057a2.379,2.379,0,0,1-1.1.919,2.134,2.134,0,0,1-2.354-.237l-.056.085,0,0-1.031,1.542a4.408,4.408,0,0,0,.819.449,4.472,4.472,0,0,0,5.378-1.652l-1.57-1.05Z" transform="translate(-841.32 -197.349)" fill="#231f20"/>
      <path id="Caminho_19372" data-name="Caminho 19372" d="M1364.725,101.86v8.573l1.333.54-.757,1.767-1.471-.613a1.667,1.667,0,0,1-.725-.609,1.915,1.915,0,0,1-.284-1.063v-8.6h1.905Z" transform="translate(-1336.705 -99.908)" fill="#231f20"/>
      <g id="Grupo_9701" data-name="Grupo 9701" transform="translate(29.426 3.864)">
        <path id="Caminho_19373" data-name="Caminho 19373" d="M1537.657,263.574a2.424,2.424,0,0,1,.833-1.83l-1.368-1.525a4.48,4.48,0,0,0,0,6.708l1.366-1.526a2.425,2.425,0,0,1-.827-1.828Z" transform="translate(-1535.61 -259.097)" fill="#231f20"/>
        <path id="Caminho_19374" data-name="Caminho 19374" d="M1696.373,463.048a2.458,2.458,0,0,1-.77-.126l-.653,1.942a4.481,4.481,0,0,0,5.813-3.344l-2.007-.41a2.432,2.432,0,0,1-2.383,1.938Z" transform="translate(-1691.897 -456.138)" fill="#231f20"/>
        <path id="Caminho_19375" data-name="Caminho 19375" d="M1696.85,201.64a4.471,4.471,0,0,0-1.42.229l.647,1.943a2.432,2.432,0,0,1,3.151,1.824l2.008-.407a4.481,4.481,0,0,0-4.386-3.589Z" transform="translate(-1692.367 -201.64)" fill="#231f20"/>
      </g>
    </g>
  </g>
</svg>
